<svg xmlns="http://www.w3.org/2000/svg" viewBox="0 0 256.54 245.05"><defs><style>.a{fill:none;}</style></defs><title>Untitled-1</title><path class="a" d="M138.62,10a20.14,20.14,0,0,0-6.53,7.29c-2.69,5-.77,7.69-5,11.53s-10,14.59-10.76,21.51-3.46,21.13-2.3,21.51a4.78,4.78,0,0,1,2.24,1.75c.27.4,1.77,1.63,1.9,3.26s1,28.32,0,29.54,1.09,1.91,1.09,1.91,5.17-.14,6,3.13.55,6.4.82,7.49,4,1,4,1,5.71.54,8.84-1.77-2.17-.54-2.17-.54-4.9,3.13-5.86,4.62c0,0-2.88,2.84-2.72,3.83s-.16,2.15.83,2.48,4.79,1.81,5.12,4.13.82,10.23,2.64,11.55,5.45,8.92,15.19-2.31,11.06-17,12.22-18.82,11.56-10.4,12.22-13.37,1.32-6.28,1.15-7.93S176.67,89,176.67,89A46.11,46.11,0,0,1,178,82.25a3.21,3.21,0,0,1,2-2s.49,2.8-.33,3.63-4.46,4.29-5.45,1-2-10.24,1.15-12.71a25.06,25.06,0,0,0,4.13-3.8s4.63-.33,5.45.83,1,5.28,1.82,6.43,1.32,11.73-.33,14.2-5.95,6.28-6.61,8.26-1.65,7.76-3.79,6.44-1.16-4-1.16-4S175.34,90.5,178,87.7s4.29-.83,4.62.49-1.49,9.25-4.62,5-3.47-15.85-1.82-17,5.12-5,8.42,3.14,8.59,3.3,8.59,3.3,7.92-5.45,6.44-8.09-2.32,16.84-7.93,22.12-8.75,9.41-10.4,14.86-10.57,6.94-10.57,6.94-4.13,2.31-1.48,3.63,12,4.62,20.3-5,7.76-18.5,7.76-18.5,4.63-17.17,6.94-20.47.43-17.44-1-20.63-7.23-7.81-7.81-13,4.05-6.94,3.76-9.26S199.75,32,194,25.07s-40.82-2.32-41.11.29,2,7.52,0,9-9.27,8.4-10.42.87,12.73-18.53,17.95-21.42,12.16,2.31,15.05,2.31,6.08-.29,9,1.45,9,7.82,9,10.42,11,19.69,7,33-7.82,18-9,18.53-20.26-22.88-30.68-21.14-9,2.9-11.87,1.74-.87-3.77-.87-3.77,7.23-6.94,13.6,7S165,84.71,165,84.71s-6.08,21.71-4.34,25.47,3.76,22.88,9,32.43,9.84,13.9,8.4,15.92-6.95,3.48-10.14-.29-3.47-11-6.37-13.89-8.1-8.4-11.58-6.95-5.21,6.08-6.37,7.53-2.89,3.47-4.92,3.18-9.26-4.63-9-7.24,5.21-7.52,7.81-4.92a6.47,6.47,0,0,1,2,5.5s-4.63,7.82-6.66,8.4c0,0-2.89.29-2.89,2.6a8.75,8.75,0,0,0,2.89,6.37c1.74,1.45,6.37,8.4,3.77,11s-13.61,5.79-16.8,4.06-3.47-3.19-6.65-.29S109.5,181,95,179.67c0,0-5.51-10.14-8.69-10.71s-12.14-2.36-14.77-4.06c-4.92-3.18-2.89-7.53-2-13.32,0,0-2-2.6-2.9-4.05s2-2,.87-4.05S64,142.32,60.78,142s-4.63-3.47-7-1.45-3.18,9.56-3.18,9.56-1.16.58,1.74,2,9.84,4.93,9.84,11.29-3.47,50.09-2.61,52.7.58,14.18,6.95,2c2.77-5.28,2.81-11.38,2-16.59a47.81,47.81,0,0,0-3.69-12.07s-7.24-20.27-7.53-23.74,1.45-13.9,3.47-15.92,8.69,1.16,8.4,22.29,0,23.45,1.45,25.48,3.47,5.5,7.81,3.76,12.74-6.66,20.27-6.37,18.24,2.9,21.13,5.5,4.64,8.4,7.24,9.27,3.77.87,4-1.45,2.32-9.27,2-11.87-2.31-7-2-9.55l.29-2.61s-6.65,16.79-5.79,19.69,7.24,11.29,9.56,5.79,2-20,4.63-27.8,1.74-7.81-.58-10.42S128.82,160,128.53,157.09s-2.32-4.93-4.63-4.93-11.58.29-16.79-1.44-9-5.22-11-5.22-4.92-3.47-7.52-2.89-10.72-1.16-8.4,1.16a17.29,17.29,0,0,0,6.37,3.47s14.48-.87,22.87.87,14.48.87,15.35-.58,11.84-5.71,12.63-6.39,2.39-5.8,1.14-7.39-3-2-3.3-3.41-.79-5.56-.79-5.56,1.47-3.3-5.57-3.53-6.71-.22-8.41.34-.8,7.39.68,7.73,6.82-6.25,6.82-6.25,3.46-4,4.09-4.32c2.16-.91,5.11,1.37,4.77,3.07a3.66,3.66,0,0,1-4.2,4.21,9.29,9.29,0,0,1-6.93-3.19s-4.66-5.9-4.32-8.29-1-7.59,1-9,7.46,1.83,7.46,1.83.91,1.7-.13,2a13.24,13.24,0,0,1-3.27,0c-1.18,0-6.15-3.79-6.55-4.84s-3.53-1.17-4.18.13,0,.66.26,2.23-1.31,2.35-.52,3.14,3.27.78,3.27.78,6.54-1.57,6.93-3.14-.78-5.1-.26-6.67,2.48-3.4,2.48-3.92-2-1.44-2-1.44a1.92,1.92,0,0,1,1.05-1.44c.91-.39,2.09-.79,1.83-2s-2-2.49-2.22-2.1,2.74,2.62,4.18,2.23,6.41-2.1,7.46-3.8a5.45,5.45,0,0,0,.52-3.79s-4.84,8.76-7.72,8.89-2.48-5.75-2.35-6.14.78-7.33-.79-8.64-2.23-.66-2.22-.13,3.93,2.22,6.67,2.62,8.77,2.74,8.77,3.53-9-4.06-10.6-6-8-4.39-8.71-2.57,1.59,4.11,4,6.37c0,0-.18,6.62-1.44,7.45,0,0-.65,2.75,5.1,3.93,0,0,6.5-3.36,1-3.36s-1.37,3.09-5.36,3c0,0-2.56-8.93-.64-16.3s3-13.13,3-10.57-.32,13.46-1.28,13.46-8.49,0-11.69-3.85-3.37-5.29-3.21-6.57S113.05,53.93,112.4,52s6.89-8.49,13.62-5,25.47,15.38,31.24,14.9,12,13.46,12,13.46,2.56,8.17-.48,20.67-5.29,13-5.29,16.82-1.44,14.74.32,18.74,1.28,5.13.64,7.69-4.48,8.33-4,11.54-1.77,5.76,1.6,10.09,3.52,10.57,3.52,10.57-2.08,5.61-3.52,6.25c0,0-3.21,2.56-2.57,3s2.41,0,3.37-6.08,2.24-9.46,1-16.35-4.81-9.29-4.33-12.33,3.53-9.93,3.37-12,1.12-7.37,4.64-8.81,7.37-3.52,7.21-5-2.88-6.57-4.16-5.77-7.05,4.32-3.85,8,11.38,4.32,11.38,4.32S197,118.49,197.15,114s5.93-15.7,7.21-18.1,4.81-11.22,4.49-13.3-1.44-13.14-1.12-14.26-.64-5-1.29-5.29.29-6.69,2-1.69,5,19.16,3.75,25.82-3.33,17.08-7.5,24.58S198.4,118,193,128s-6.66,24.15-3.75,25-.39-2.2-.39-2.2,2-23.07,4.07-28.84,8.82-10.18,12.21-19a284.87,284.87,0,0,0,9.16-31.56c1-5.09,3.06-8.82,3.4-6.45s-2.83,15.82-2.24,24.82a52.35,52.35,0,0,1-2,18c-.58,2-7.24,13.31-9,18.6a65.13,65.13,0,0,0-2.74,12.72c-.2,2-3.53,8.23-4.5,5.49s6.06-11.36,8.61-13.71,5.68-3.13,8-3.72,6.06-1.56,8-1.37S231.5,133,234.24,133s21.93,8,24.28,15.66,3.13,9.39,2.74,15.46.2,9.79-.78,13.71-5.68,11.74-7.83,11.74-11.75,2.55-12.34-9.2,4.12-8.33,2.55-18.4c-1-6.27-3.72-9.4-5.09-11.75,0,0-3.72-19.57-7.24-22.9S205.27,96,205.86,85.27s-3.52-53.84-6.27-57-2.93-9.2-17.81-10.37-35.63-5.68-37.39-7.25S127,7.75,128.14,13.62s-1,14.49,4.11,14.68,12.92,3.33,13.9,4.7,5.87,5.29,8,5.48,7-10.37,15.66-8.22,8.22,12.33,13.31,12.14a24.31,24.31,0,0,0,9.41-2,9.5,9.5,0,0,0,5.27-5.86c2-6.46-3.52,2.15-3.72,3.32s.73,8-1.82,11.37-8.71,12.53-15.93,9.35S169.57,50.32,167,48.2s-4-3.4-10.83-2.12.21-3.19.21-3.19,3-3,8.28-1.7,3.83,6,13,5.31S195.28,45,205,37.16c0,0,4-.22,4,2.55s3.13,52.19,9.77,58.83,8.48,17.34,10,19.56,12.54,23.24,16.6,24.34,6.27,11.07,6.27,11.07.74,45.38-39.84,38-85.59,20.29-86,25.82.74,18.82,8.12,19.56,30.62,3.32,38.36-11.07,19.93-47.59,12.92-52.39S158.7,167.16,146.9,179s-20,29.93-20.53,33.92,3.19,18.11,8.25,20c2.49.92,17.2,4.13,30.37-6.39,13.62-10.88,25.69-35.67,26.37-45.29,0,0,0-13.31-9.06-13.58-4.2-.12-21.45,3.5-34.62,15.45-15.22,13.79-26.38,36.57-28.24,43.42,0,0-5.59,10.38-17,13.05s-11.45-10.66-25.57-10.39S47,236.6,46.46,227.54,73.63,211,73.63,211s22.37-12.26,20-21.31-12-6.66-12-6.66-5.6.26-8.53-6.66-.8-14.65.8-14.39,3.73,12,5.6,13.59,10.65,13.58,13.58,7.46S88.54,166.54,88,165.74s-4.53-4-5.33-6.92,5.06-12.52,6.13-9.06-1.87,18.12,6.92,18.65,8.79.26,11.46-.27,18.11-6.66,20-6.66,6.93-3.46,12.26,4-4.26,22.64-4.26,22.64-12.79,12.25-17.32-.8-7.46-14.92-9.85-16.51-2.67-13.59-6.4-13.86-8.52-.53-8.52,2.93a95.25,95.25,0,0,0,1.6,13.86,44.4,44.4,0,0,1,.53,10.65c-.27,3.2-3.2,6.39.27,7.46s16.08.78,18.91,1.33c8.26,1.6,12.25,12.52,9.32,18.38,0,0-10.92,33-16.51,33s-15.45-8.79-26.91-10.92-22.9,5.33-28,4.26S49.65,225.68,56,225.68s16.79,5.06,16.79,10.92-1.07,14.65-4,14.65-12.25-3.73-17-3.2-16.51,9.59-19.18,5.06,13.32-16.78,7.73-25.83-20.24-11.46-23.44-14.39S22.75,199,22,188.65s2.13-32.23-5.86-34.36S2.24,156.42,6,159.88s8.26,24.24,33,20.25,43.42-17.85,41.82-29-12-24.5-12-24.5-17-11.72-20.24-6.13-3.47,12.25-.54,13.59,11.46,3.46,12.79,4.52,6.93,3.47,9.32,2.67,8.26-1.07,9.59-.53a2.68,2.68,0,0,0,3.46-2.4c0-1.87-6.39-11.19-8.52-11.46s-9.59,2.67-9.32,5.33,3.46,6.93,5.33,4.8,7.72-5.86,5.59-6.93-16-10.12-19.45-7.72-7.45,7.45-2.13,11.45,12.79-.27,14.92-.8,3.2-13.85,3.2-16.78-.8-7.72-5.33-2.93a14.92,14.92,0,0,0-4,12.52c.27,2.66-2.66,7.46-4.53,5.86s-2.13-13.05-.26-19.71S71.23,96.22,71.76,93.82s-1.86-.26-2.66-1.59,9.32-14.39,8-16.52c-.59-.94-1.81-1.15-3-1.26-1.47-.13-2.88-.1-2.88-1.14,0-1.86,11.19-5.86,14.12-7.19s19.11,3.86,20.51,5.33a5.22,5.22,0,0,1,1.5,3.85c-.24,2.15-1.55,6.33-.71,7.64s6.08,2.39,6.68,3.46,6.92,6,7.28,7.28-1.07,12.42-.83,13.25a44.22,44.22,0,0,0,2.86,6.33l1.79,1.67s2.75,2.15,2.87,2.63-.48,3.7-.24,4.53.95,4.42,1.91,4.9,3.1,4.41,3.1,5.72a44.51,44.51,0,0,1-.6,7.41c-.47,2.14-.12,4.77-.47,5.61s-6.21,3.7-7.52,3.7-16.6,0-18.74-2.75-5.49-5.13-6.45-4.54-2.39,1-2.39,1.68-1.19,4.41,2.63.23,16.47-14.92,17.19-24.23,3-16.23-4.9-16.71-23.63-.12-26.73,3.94-9.79,13.61-5.49,19.22,6.32,6.92,7.64,8.83,8,5.13,10.74,5.73,12.56,3.58,20.35,3.58,13.15,3.41,12.18-7.55-6.58-16.57-10-18.51-6.33-5.12-8.52-5.61-14.13-1.7-17-3.41-5.36-11.2-8-12.66,2.44-4.39,4.14-6.09,1.22-6.82,3.66-7.06a59.34,59.34,0,0,1,9.49,0c1,.24,4.88,4.62,4.39,6.57s-5.85,8-6.82,7.8S92.24,92,93,87.9s17.86-4.58,18.74-3.83-.25,3-.25,3-5,1.75-5.38,2.87,1.63,1-.12,4.51-2.38,5.25-4.63,5.75-.88,1.5-2.25.5c0,0,7.63-5.38,8.5-8s0-8.76,2.38-10.51,6.38-.88,7-.75,4.51,5.5,3.13,8.63-1.12,3.63-3.38,1.25a13.92,13.92,0,0,1-3.5-7.76c0-1.62-3.63-7.88-4.13-8.25s-10.75-7.63-13.76-9.88-8-8.76-11.88-8.89-7.39-2.1-13.07-1.64S47.88,61,46.74,62s-18.86,8-18.86,23.4-1.59,14.77.69,18.41,8,16.58,5.68,33.63-6.14,17-2.28,26.13,13.41,16.36,13.41,24.31-1.82,20-1.59,26.81S49.24,229.18,54,229.41s12.5-1.36,12.5-5.45-2.73-5.46-2.73-5.46,3.19,5.46.69,6.36-15.91,6.37-15.68-7,4.09-15.45,4.09-15.45,8.86-9.77,10.9-21.59-7.49-32.72-7.49-32.72S45.38,136.7,45.15,133.75s-2.27-15.9,3.64-28.86S54.92,96,59,92.4s4.77-4.77,5.68-7.73,4.78-6.82,7.73-7.72,10.45-1.37,6.82,1.59-15,17.72-17.5,19.54-13.63,17.72-11.36,23.4,10.22-3.63,12-9.32S70.6,89,72.65,91s-.46,23.86-4.09,30.9,4.77,21.59,6.36,22.73,16.13,25.9,13.18,30.9S62.65,224.64,52.65,196s-4.54-39.54-4.54-39.54-4.55-42.94-3-51.35S56.06,67.18,61.06,63.54,72.65,59.9,72.65,59.9s2.72-2.72,4.31-1.81,10.68,4.31,2.28,6.59S52.88,66,50.61,71s-10,10-10,26.81-1.36,34.54-.91,38.85-1.58,9.15,1.06,14.06,6.79,6,10.56,18.87S54,199.06,49.06,204s-8.68,14-14.72,10.57-7.54-6.41-2.64-11.32,10.19-9.06,5.28-15.09S16.23,150,19.25,145.48,30.19,133.4,29.06,124s1.89-22.65,6.79-35.1,1.51-15.09,9.81-22.26,29.81-22.64,43.4-20,26.79-7.17,27.17-17-30.94,6-30.94,6" transform="translate(-4.82 -9.33)"/></svg>